{
  "accessors": [
    {
      "bufferView": 2,
      "componentType": 5126,
      "count": 2363,
      "max": [
        24.966360092163086,
        86.32316589355469,
        36.0841064453125
      ],
      "min": [
        16.02400016784668,
        70.1723403930664,
        25.859745025634766
      ],
      "type": "VEC3"
    },
    {
      "bufferView": 2,
      "byteOffset": 28356,
      "componentType": 5126,
      "count": 2363,
      "max": [
        0.9990108609199524,
        0.9971920251846313,
        0.998145341873169
      ],
      "min": [
        -0.9999829530715942,
        -0.9992004632949829,
        -0.9995914101600647
      ],
      "type": "VEC3"
    },
    {
      "bufferView": 1,
      "componentType": 5126,
      "count": 2363,
      "max": [
        0.9844026565551758,
        0.9812233448028564
      ],
      "min": [
        0.015422999858856201,
        0.0006223022937774658
      ],
      "type": "VEC2"
    },
    {
      "bufferView": 1,
      "byteOffset": 18904,
      "componentType": 5126,
      "count": 2363,
      "max": [
        0.9844026565551758,
        0.9812233448028564
      ],
      "min": [
        0.015422999858856201,
        0.0006223022937774658
      ],
      "type": "VEC2"
    },
    {
      "bufferView": 0,
      "componentType": 5125,
      "count": 3918,
      "type": "SCALAR"
    }
  ],
  "asset": {
    "extras": {
      "author": "Hippocrocaduck (https://sketchfab.com/Hippocrocaduck)",
      "license": "CC-BY-4.0 (http://creativecommons.org/licenses/by/4.0/)",
      "source": "https://sketchfab.com/3d-models/flowers-e9e8b1ca9d3640f8be00b760e1fad170",
      "title": "Flowers"
    },
    "generator": "Sketchfab-12.66.0",
    "version": "2.0"
  },
  "bufferViews": [
    {
      "buffer": 0,
      "byteLength": 15672,
      "name": "floatBufferViews",
      "target": 34963
    },
    {
      "buffer": 0,
      "byteLength": 37808,
      "byteOffset": 15672,
      "byteStride": 8,
      "name": "floatBufferViews",
      "target": 34962
    },
    {
      "buffer": 0,
      "byteLength": 56712,
      "byteOffset": 53480,
      "byteStride": 12,
      "name": "floatBufferViews",
      "target": 34962
    }
  ],
  "buffers": [
    {
      "byteLength": 110192,
      "uri": "scene.bin"
    }
  ],
  "images": [
    {
      "uri": "textures/Flowers1_baseColor.png"
    }
  ],
  "materials": [
    {
      "alphaCutoff": 0.5078125,
      "alphaMode": "MASK",
      "doubleSided": true,
      "name": "Flowers1",
      "pbrMetallicRoughness": {
        "baseColorTexture": {
          "index": 0
        },
        "metallicFactor": 0.0,
        "roughnessFactor": 0.6
      }
    }
  ],
  "meshes": [
    {
      "name": "Uchujin_Main2_Flowers1_0",
      "primitives": [
        {
          "attributes": {
            "NORMAL": 1,
            "POSITION": 0,
            "TEXCOORD_0": 2,
            "TEXCOORD_1": 3
          },
          "indices": 4,
          "material": 0,
          "mode": 4
        }
      ]
    }
  ],
  "nodes": [
    {
      "children": [
        1
      ],
      "matrix": [
        1.0,
        0.0,
        0.0,
        0.0,
        0.0,
        2.220446049250313e-16,
        -1.0,
        0.0,
        0.0,
        1.0,
        2.220446049250313e-16,
        0.0,
        0.0,
        0.0,
        0.0,
        1.0
      ],
      "name": "Sketchfab_model"
    },
    {
      "children": [
        2
      ],
      "matrix": [
        1.0,
        0.0,
        0.0,
        0.0,
        0.0,
        0.0,
        1.0,
        0.0,
        0.0,
        -1.0,
        0.0,
        0.0,
        0.0,
        0.0,
        0.0,
        1.0
      ],
      "name": "4db56306614c41c6a5a2215aaf147b10.fbx"
    },
    {
      "children": [
        3
      ],
      "name": "RootNode"
    },
    {
      "children": [
        4
      ],
      "matrix": [
        1.0,
        0.0,
        0.0,
        0.0,
        0.0,
        1.0,
        0.0,
        0.0,
        0.0,
        0.0,
        1.0,
        0.0,
        2.204996109008789,
        0.0,
        0.0,
        1.0
      ],
      "name": "Uchujin_Main2"
    },
    {
      "mesh": 0,
      "name": "Uchujin_Main2_Flowers1_0"
    }
  ],
  "samplers": [
    {
      "magFilter": 9729,
      "minFilter": 9987,
      "wrapS": 10497,
      "wrapT": 10497
    }
  ],
  "scene": 0,
  "scenes": [
    {
      "name": "Sketchfab_Scene",
      "nodes": [
        0
      ]
    }
  ],
  "textures": [
    {
      "sampler": 0,
      "source": 0
    }
  ]
}
