{
  "accessors": [
    {
      "bufferView": 2,
      "componentType": 5126,
      "count": 65532,
      "max": [
        0.20910300314426422,
        0.999567985534668,
        0.20584900677204132
      ],
      "min": [
        -0.2033260017633438,
        -0.06651999801397324,
        -0.21031999588012695
      ],
      "type": "VEC3"
    },
    {
      "bufferView": 2,
      "byteOffset": 786384,
      "componentType": 5126,
      "count": 65532,
      "max": [
        0.9999948740005493,
        0.999988317489624,
        1.0
      ],
      "min": [
        -1.0,
        -0.9998927116394043,
        -1.0
      ],
      "type": "VEC3"
    },
    {
      "bufferView": 1,
      "componentType": 5126,
      "count": 65532,
      "max": [
        0.99755859375,
        0.99755859375
      ],
      "min": [
        0.0024814605712890625,
        0.002498626708984375
      ],
      "type": "VEC2"
    },
    {
      "bufferView": 0,
      "componentType": 5125,
      "count": 291162,
      "type": "SCALAR"
    },
    {
      "bufferView": 2,
      "byteOffset": 1572768,
      "componentType": 5126,
      "count": 65532,
      "max": [
        0.26264700293540955,
        0.5188599824905396,
        0.10131599754095078
      ],
      "min": [
        -0.20419999957084656,
        -1.0028209686279297,
        -0.20902800559997559
      ],
      "type": "VEC3"
    },
    {
      "bufferView": 2,
      "byteOffset": 2359152,
      "componentType": 5126,
      "count": 65532,
      "max": [
        0.999997615814209,
        1.0,
        0.9999516010284424
      ],
      "min": [
        -1.0,
        -1.0,
        -0.9999985694885254
      ],
      "type": "VEC3"
    },
    {
      "bufferView": 1,
      "byteOffset": 524256,
      "componentType": 5126,
      "count": 65532,
      "max": [
        0.99755859375,
        0.99755859375
      ],
      "min": [
        0.0024814605712890625,
        0.0024814605712890625
      ],
      "type": "VEC2"
    },
    {
      "bufferView": 0,
      "byteOffset": 1164648,
      "componentType": 5125,
      "count": 245508,
      "type": "SCALAR"
    },
    {
      "bufferView": 2,
      "byteOffset": 3145536,
      "componentType": 5126,
      "count": 65532,
      "max": [
        0.1817449927330017,
        0.8258770108222961,
        0.22002899646759033
      ],
      "min": [
        -0.20419999957084656,
        -1.0020359754562378,
        -0.21017999947071075
      ],
      "type": "VEC3"
    },
    {
      "bufferView": 2,
      "byteOffset": 3931920,
      "componentType": 5126,
      "count": 65532,
      "max": [
        0.9998292326927185,
        1.0,
        1.0
      ],
      "min": [
        -0.9999640583992004,
        -1.0,
        -1.0
      ],
      "type": "VEC3"
    },
    {
      "bufferView": 1,
      "byteOffset": 1048512,
      "componentType": 5126,
      "count": 65532,
      "max": [
        0.99755859375,
        0.99755859375
      ],
      "min": [
        0.0024814605712890625,
        0.0024852752685546875
      ],
      "type": "VEC2"
    },
    {
      "bufferView": 0,
      "byteOffset": 2146680,
      "componentType": 5125,
      "count": 224340,
      "type": "SCALAR"
    },
    {
      "bufferView": 2,
      "byteOffset": 4718304,
      "componentType": 5126,
      "count": 17848,
      "max": [
        0.21061600744724274,
        0.9995009899139404,
        0.1942570060491562
      ],
      "min": [
        -0.1811400055885315,
        0.17090299725532532,
        -0.009211000055074692
      ],
      "type": "VEC3"
    },
    {
      "bufferView": 2,
      "byteOffset": 4932480,
      "componentType": 5126,
      "count": 17848,
      "max": [
        0.9999541640281677,
        0.9997524619102478,
        0.999964714050293
      ],
      "min": [
        -0.9998899698257446,
        -0.9993267059326172,
        -1.0
      ],
      "type": "VEC3"
    },
    {
      "bufferView": 1,
      "byteOffset": 1572768,
      "componentType": 5126,
      "count": 17848,
      "max": [
        0.99755859375,
        0.99755859375
      ],
      "min": [
        0.0024814605712890625,
        0.00249481201171875
      ],
      "type": "VEC2"
    },
    {
      "bufferView": 0,
      "byteOffset": 3044040,
      "componentType": 5125,
      "count": 52941,
      "type": "SCALAR"
    }
  ],
  "asset": {
    "extras": {
      "author": "wuscott0317 (https://sketchfab.com/wuscott0317)",
      "license": "SKETCHFAB Standard (https://sketchfab.com/licenses)",
      "source": "https://sketchfab.com/3d-models/fire-torch-7eae54ff03374ef396dff3a9d0fb4849",
      "title": "fire torch"
    },
    "generator": "Sketchfab-16.62.0",
    "version": "2.0"
  },
  "bufferViews": [
    {
      "buffer": 0,
      "byteLength": 3255804,
      "name": "floatBufferViews",
      "target": 34963
    },
    {
      "buffer": 0,
      "byteLength": 1715552,
      "byteOffset": 3255804,
      "byteStride": 8,
      "name": "floatBufferViews",
      "target": 34962
    },
    {
      "buffer": 0,
      "byteLength": 5146656,
      "byteOffset": 4971356,
      "byteStride": 12,
      "name": "floatBufferViews",
      "target": 34962
    }
  ],
  "buffers": [
    {
      "byteLength": 10118012,
      "uri": "scene.bin"
    }
  ],
  "images": [
    {
      "uri": "textures/material_0_baseColor.jpeg"
    }
  ],
  "materials": [
    {
      "doubleSided": true,
      "name": "material_0",
      "pbrMetallicRoughness": {
        "baseColorTexture": {
          "index": 0
        },
        "metallicFactor": 0.0,
        "roughnessFactor": 0.8
      }
    }
  ],
  "meshes": [
    {
      "name": "Object_0",
      "primitives": [
        {
          "attributes": {
            "NORMAL": 1,
            "POSITION": 0,
            "TEXCOORD_0": 2
          },
          "indices": 3,
          "material": 0,
          "mode": 4
        }
      ]
    },
    {
      "name": "Object_1",
      "primitives": [
        {
          "attributes": {
            "NORMAL": 5,
            "POSITION": 4,
            "TEXCOORD_0": 6
          },
          "indices": 7,
          "material": 0,
          "mode": 4
        }
      ]
    },
    {
      "name": "Object_2",
      "primitives": [
        {
          "attributes": {
            "NORMAL": 9,
            "POSITION": 8,
            "TEXCOORD_0": 10
          },
          "indices": 11,
          "material": 0,
          "mode": 4
        }
      ]
    },
    {
      "name": "Object_3",
      "primitives": [
        {
          "attributes": {
            "NORMAL": 13,
            "POSITION": 12,
            "TEXCOORD_0": 14
          },
          "indices": 15,
          "material": 0,
          "mode": 4
        }
      ]
    }
  ],
  "nodes": [
    {
      "children": [
        1
      ],
      "matrix": [
        1.0,
        0.0,
        0.0,
        0.0,
        0.0,
        2.220446049250313e-16,
        -1.0,
        0.0,
        0.0,
        1.0,
        2.220446049250313e-16,
        0.0,
        0.0,
        0.0,
        0.0,
        1.0
      ],
      "name": "Sketchfab_model"
    },
    {
      "children": [
        2
      ],
      "name": "root"
    },
    {
      "children": [
        3
      ],
      "matrix": [
        1.0,
        0.0,
        0.0,
        0.0,
        0.0,
        2.220446049250313e-16,
        1.0,
        0.0,
        0.0,
        -1.0,
        2.220446049250313e-16,
        0.0,
        0.0,
        0.0,
        0.0,
        1.0
      ],
      "name": "GLTF_SceneRootNode"
    },
    {
      "children": [
        4,
        5,
        6,
        7
      ],
      "name": "_0"
    },
    {
      "mesh": 0,
      "name": "Object_4"
    },
    {
      "mesh": 1,
      "name": "Object_5"
    },
    {
      "mesh": 2,
      "name": "Object_6"
    },
    {
      "mesh": 3,
      "name": "Object_7"
    }
  ],
  "samplers": [
    {
      "magFilter": 9729,
      "minFilter": 9987,
      "wrapS": 10497,
      "wrapT": 10497
    }
  ],
  "scene": 0,
  "scenes": [
    {
      "name": "Sketchfab_Scene",
      "nodes": [
        0
      ]
    }
  ],
  "textures": [
    {
      "sampler": 0,
      "source": 0
    }
  ]
}
