{
  "accessors": [
    {
      "bufferView": 2,
      "componentType": 5126,
      "count": 894,
      "max": [
        21.406862258911133,
        25.274059295654297,
        16.06406021118164
      ],
      "min": [
        -21.406862258911133,
        -25.274059295654297,
        -16.06406021118164
      ],
      "type": "VEC3"
    },
    {
      "bufferView": 2,
      "byteOffset": 10728,
      "componentType": 5126,
      "count": 894,
      "max": [
        0.9974563717842102,
        0.9992223381996155,
        0.9990836977958679
      ],
      "min": [
        -0.9948545694351196,
        -0.9975348711013794,
        -0.9999822974205017
      ],
      "type": "VEC3"
    },
    {
      "bufferView": 3,
      "componentType": 5126,
      "count": 894,
      "max": [
        0.9995052814483643,
        0.6258178353309631,
        0.9987236261367798,
        1.0
      ],
      "min": [
        -0.9999990463256836,
        -0.700892448425293,
        -0.9994252920150757,
        1.0
      ],
      "type": "VEC4"
    },
    {
      "bufferView": 1,
      "componentType": 5126,
      "count": 894,
      "max": [
        0.8780980110168457,
        0.9828479886054993
      ],
      "min": [
        0.017152000218629837,
        0.017152070999145508
      ],
      "type": "VEC2"
    },
    {
      "bufferView": 1,
      "byteOffset": 7152,
      "componentType": 5126,
      "count": 894,
      "max": [
        0.8780980110168457,
        0.9828479886054993
      ],
      "min": [
        0.017152000218629837,
        0.017152070999145508
      ],
      "type": "VEC2"
    },
    {
      "bufferView": 1,
      "byteOffset": 14304,
      "componentType": 5126,
      "count": 894,
      "max": [
        0.8780980110168457,
        0.9828479886054993
      ],
      "min": [
        0.017152000218629837,
        0.017152070999145508
      ],
      "type": "VEC2"
    },
    {
      "bufferView": 0,
      "componentType": 5125,
      "count": 4380,
      "type": "SCALAR"
    },
    {
      "bufferView": 2,
      "byteOffset": 21456,
      "componentType": 5126,
      "count": 4883,
      "max": [
        13.729816436767578,
        11.51736068725586,
        12.777870178222656
      ],
      "min": [
        -14.821621894836426,
        -5.064052581787109,
        -16.28734016418457
      ],
      "type": "VEC3"
    },
    {
      "bufferView": 2,
      "byteOffset": 80052,
      "componentType": 5126,
      "count": 4883,
      "max": [
        0.994499146938324,
        0.9998642206192017,
        0.9995574951171875
      ],
      "min": [
        -0.9980528354644775,
        -0.9995736479759216,
        -0.9965044260025024
      ],
      "type": "VEC3"
    },
    {
      "bufferView": 1,
      "byteOffset": 21456,
      "componentType": 5126,
      "count": 4883,
      "max": [
        1.0,
        1.0
      ],
      "min": [
        0.0,
        0.0
      ],
      "type": "VEC2"
    },
    {
      "bufferView": 0,
      "byteOffset": 17520,
      "componentType": 5125,
      "count": 27168,
      "type": "SCALAR"
    }
  ],
  "asset": {
    "extras": {
      "author": "move.run.stop (https://sketchfab.com/move.run.stop)",
      "license": "CC-BY-4.0 (http://creativecommons.org/licenses/by/4.0/)",
      "source": "https://sketchfab.com/3d-models/strawberry-9b42ef1096da4103a12fb80cad01ac15",
      "title": "Strawberry"
    },
    "generator": "Sketchfab-13.74.0",
    "version": "2.0"
  },
  "bufferViews": [
    {
      "buffer": 0,
      "byteLength": 126192,
      "name": "floatBufferViews",
      "target": 34963
    },
    {
      "buffer": 0,
      "byteLength": 60520,
      "byteOffset": 126192,
      "byteStride": 8,
      "name": "floatBufferViews",
      "target": 34962
    },
    {
      "buffer": 0,
      "byteLength": 138648,
      "byteOffset": 186712,
      "byteStride": 12,
      "name": "floatBufferViews",
      "target": 34962
    },
    {
      "buffer": 0,
      "byteLength": 14304,
      "byteOffset": 325360,
      "byteStride": 16,
      "name": "floatBufferViews",
      "target": 34962
    }
  ],
  "buffers": [
    {
      "byteLength": 339664,
      "uri": "scene.bin"
    }
  ],
  "images": [
    {
      "uri": "textures/Strawberry_baseColor.png"
    },
    {
      "uri": "textures/Strawberry_metallicRoughness.png"
    },
    {
      "uri": "textures/Strawberry_normal.png"
    }
  ],
  "materials": [
    {
      "doubleSided": true,
      "name": "Strawberry",
      "normalTexture": {
        "index": 2
      },
      "pbrMetallicRoughness": {
        "baseColorTexture": {
          "index": 0
        },
        "metallicFactor": 0.0,
        "metallicRoughnessTexture": {
          "index": 1
        },
        "roughnessFactor": 0.6
      }
    },
    {
      "doubleSided": true,
      "name": "material",
      "pbrMetallicRoughness": {
        "baseColorFactor": [
          0.2318,
          0.57,
          0.0627,
          1.0
        ],
        "metallicFactor": 0.0,
        "roughnessFactor": 0.9157311284747076
      }
    }
  ],
  "meshes": [
    {
      "name": "Strawberry_Strawberry_0",
      "primitives": [
        {
          "attributes": {
            "NORMAL": 1,
            "POSITION": 0,
            "TANGENT": 2,
            "TEXCOORD_0": 3,
            "TEXCOORD_1": 4,
            "TEXCOORD_2": 5
          },
          "indices": 6,
          "material": 0,
          "mode": 4
        }
      ]
    },
    {
      "name": "Hat_Hat_0",
      "primitives": [
        {
          "attributes": {
            "NORMAL": 8,
            "POSITION": 7,
            "TEXCOORD_0": 9
          },
          "indices": 10,
          "material": 1,
          "mode": 4
        }
      ]
    }
  ],
  "nodes": [
    {
      "children": [
        1
      ],
      "matrix": [
        1.0,
        0.0,
        0.0,
        0.0,
        0.0,
        2.220446049250313e-16,
        -1.0,
        0.0,
        0.0,
        1.0,
        2.220446049250313e-16,
        0.0,
        0.0,
        0.0,
        0.0,
        1.0
      ],
      "name": "Sketchfab_model"
    },
    {
      "children": [
        2
      ],
      "matrix": [
        0.009999999776482582,
        0.0,
        0.0,
        0.0,
        0.0,
        0.0,
        0.009999999776482582,
        0.0,
        0.0,
        -0.009999999776482582,
        0.0,
        0.0,
        0.0,
        0.0,
        0.0,
        1.0
      ],
      "name": "1e82360840ac42b69ea5b602d2ac236d.fbx"
    },
    {
      "children": [
        3,
        5
      ],
      "name": "RootNode"
    },
    {
      "children": [
        4
      ],
      "matrix": [
        1.0,
        0.0,
        0.0,
        0.0,
        0.0,
        1.0,
        0.0,
        0.0,
        0.0,
        0.0,
        1.0,
        0.0,
        -1.8705915212631226,
        -0.15520736575126648,
        1.3400582075119019,
        1.0
      ],
      "name": "Strawberry"
    },
    {
      "mesh": 0,
      "name": "Strawberry_Strawberry_0"
    },
    {
      "children": [
        6
      ],
      "matrix": [
        1.0,
        0.0,
        0.0,
        0.0,
        0.0,
        1.0,
        0.0,
        0.0,
        0.0,
        0.0,
        1.0,
        0.0,
        -0.6768612265586853,
        25.7901611328125,
        0.989137589931488,
        1.0
      ],
      "name": "Hat"
    },
    {
      "mesh": 1,
      "name": "Hat_Hat_0"
    }
  ],
  "samplers": [
    {
      "magFilter": 9729,
      "minFilter": 9987,
      "wrapS": 10497,
      "wrapT": 10497
    }
  ],
  "scene": 0,
  "scenes": [
    {
      "name": "Sketchfab_Scene",
      "nodes": [
        0
      ]
    }
  ],
  "textures": [
    {
      "sampler": 0,
      "source": 0
    },
    {
      "sampler": 0,
      "source": 1
    },
    {
      "sampler": 0,
      "source": 2
    }
  ]
}
