{
	"asset":{
		"generator":"Khronos glTF Blender I/O v5.0.21",
		"version":"2.0"
	},
	"scene":0,
	"scenes":[
		{
			"name":"Scene",
			"nodes":[
				6
			]
		}
	],
	"nodes":[
		{
			"mesh":0,
			"name":"Hat_Hat_0"
		},
		{
			"children":[
				0
			],
			"name":"Hat",
			"translation":[
				-0.006768612191081047,
				0.2579016387462616,
				0.00989137776196003
			]
		},
		{
			"mesh":1,
			"name":"Strawberry_Strawberry_0",
			"translation":[
				0.011937303468585014,
				0.259453684091568,
				-0.0035092076286673546
			]
		},
		{
			"children":[
				2
			],
			"name":"Strawberry",
			"translation":[
				-0.01870591565966606,
				-0.001552073867060244,
				0.01340058445930481
			]
		},
		{
			"children":[
				1,
				3
			],
			"name":"RootNode"
		},
		{
			"children":[
				4
			],
			"name":"1e82360840ac42b69ea5b602d2ac236d.fbx"
		},
		{
			"children":[
				5
			],
			"name":"Sketchfab_model"
		}
	],
	"materials":[
		{
			"doubleSided":true,
			"name":"material",
			"pbrMetallicRoughness":{
				"baseColorFactor":[
					0.23180000483989716,
					0.5699999928474426,
					0.06270000338554382,
					1
				],
				"metallicFactor":0,
				"roughnessFactor":0.9157311320304871
			}
		},
		{
			"doubleSided":true,
			"name":"Strawberry",
			"normalTexture":{
				"index":0
			},
			"pbrMetallicRoughness":{
				"baseColorTexture":{
					"index":1
				},
				"metallicFactor":0,
				"metallicRoughnessTexture":{
					"index":2
				},
				"roughnessFactor":0.6000000238418579
			}
		}
	],
	"meshes":[
		{
			"name":"Hat_Hat_0",
			"primitives":[
				{
					"attributes":{
						"POSITION":0,
						"NORMAL":1,
						"TEXCOORD_0":2
					},
					"indices":3,
					"material":0
				}
			]
		},
		{
			"name":"Strawberry_Strawberry_0",
			"primitives":[
				{
					"attributes":{
						"POSITION":4,
						"NORMAL":5,
						"TEXCOORD_0":6,
						"TEXCOORD_1":7,
						"TEXCOORD_2":8
					},
					"indices":9,
					"material":1
				}
			]
		}
	],
	"textures":[
		{
			"sampler":0,
			"source":0
		},
		{
			"sampler":0,
			"source":1
		},
		{
			"sampler":0,
			"source":2
		}
	],
	"images":[
		{
			"mimeType":"image/png",
			"name":"Strawberry_normal",
			"uri":"Strawberry_normal.png"
		},
		{
			"mimeType":"image/png",
			"name":"Strawberry_baseColor",
			"uri":"Strawberry_baseColor.png"
		},
		{
			"mimeType":"image/png",
			"name":"Strawberry_metallicRoughness",
			"uri":"Strawberry_metallicRoughness.png"
		}
	],
	"accessors":[
		{
			"bufferView":0,
			"componentType":5126,
			"count":4883,
			"max":[
				0.13729816675186157,
				0.11517361551523209,
				0.12777870893478394
			],
			"min":[
				-0.14821621775627136,
				-0.0506405308842659,
				-0.16287341713905334
			],
			"type":"VEC3"
		},
		{
			"bufferView":1,
			"componentType":5126,
			"count":4883,
			"type":"VEC3"
		},
		{
			"bufferView":2,
			"componentType":5126,
			"count":4883,
			"type":"VEC2"
		},
		{
			"bufferView":3,
			"componentType":5123,
			"count":27168,
			"type":"SCALAR"
		},
		{
			"bufferView":4,
			"componentType":5126,
			"count":894,
			"max":[
				0.20213131606578827,
				-0.006713062524795532,
				0.16414982080459595
			],
			"min":[
				-0.2260059267282486,
				-0.5121942758560181,
				-0.1571314036846161
			],
			"type":"VEC3"
		},
		{
			"bufferView":5,
			"componentType":5126,
			"count":894,
			"type":"VEC3"
		},
		{
			"bufferView":6,
			"componentType":5126,
			"count":894,
			"type":"VEC2"
		},
		{
			"bufferView":7,
			"componentType":5126,
			"count":894,
			"type":"VEC2"
		},
		{
			"bufferView":8,
			"componentType":5126,
			"count":894,
			"type":"VEC2"
		},
		{
			"bufferView":9,
			"componentType":5123,
			"count":4380,
			"type":"SCALAR"
		}
	],
	"bufferViews":[
		{
			"buffer":0,
			"byteLength":58596,
			"byteOffset":0,
			"target":34962
		},
		{
			"buffer":0,
			"byteLength":58596,
			"byteOffset":58596,
			"target":34962
		},
		{
			"buffer":0,
			"byteLength":39064,
			"byteOffset":117192,
			"target":34962
		},
		{
			"buffer":0,
			"byteLength":54336,
			"byteOffset":156256,
			"target":34963
		},
		{
			"buffer":0,
			"byteLength":10728,
			"byteOffset":210592,
			"target":34962
		},
		{
			"buffer":0,
			"byteLength":10728,
			"byteOffset":221320,
			"target":34962
		},
		{
			"buffer":0,
			"byteLength":7152,
			"byteOffset":232048,
			"target":34962
		},
		{
			"buffer":0,
			"byteLength":7152,
			"byteOffset":239200,
			"target":34962
		},
		{
			"buffer":0,
			"byteLength":7152,
			"byteOffset":246352,
			"target":34962
		},
		{
			"buffer":0,
			"byteLength":8760,
			"byteOffset":253504,
			"target":34963
		}
	],
	"samplers":[
		{
			"magFilter":9729,
			"minFilter":9987
		}
	],
	"buffers":[
		{
			"byteLength":262264,
			"uri":"strawberry.bin"
		}
	]
}
