{
  "accessors": [
    {
      "bufferView": 2,
      "componentType": 5126,
      "count": 1829,
      "max": [
        2.472383737564087,
        2.015960454940796,
        8.591796875
      ],
      "min": [
        -2.0154943466186523,
        -2.4100561141967773,
        -45.839599609375
      ],
      "type": "VEC3"
    },
    {
      "bufferView": 2,
      "byteOffset": 21948,
      "componentType": 5126,
      "count": 1829,
      "max": [
        0.9998993277549744,
        0.9999991655349731,
        0.9998939037322998
      ],
      "min": [
        -0.999911367893219,
        -0.9999999403953552,
        -1.0
      ],
      "type": "VEC3"
    },
    {
      "bufferView": 1,
      "componentType": 5126,
      "count": 1829,
      "max": [
        0.3172674775123596,
        0.9985220432281494
      ],
      "min": [
        0.0014780595665797591,
        0.0014780533965677023
      ],
      "type": "VEC2"
    },
    {
      "bufferView": 0,
      "componentType": 5125,
      "count": 8400,
      "type": "SCALAR"
    },
    {
      "bufferView": 2,
      "byteOffset": 43896,
      "componentType": 5126,
      "count": 6005,
      "max": [
        11.26339054107666,
        11.2647066116333,
        25.926895141601563
      ],
      "min": [
        -10.487632751464844,
        -10.625518798828125,
        0.4456585645675659
      ],
      "type": "VEC3"
    },
    {
      "bufferView": 2,
      "byteOffset": 115956,
      "componentType": 5126,
      "count": 6005,
      "max": [
        0.9911791682243347,
        0.9894675016403198,
        0.9998884797096252
      ],
      "min": [
        -0.9884222745895386,
        -0.9914068579673767,
        0.08948655426502228
      ],
      "type": "VEC3"
    },
    {
      "bufferView": 1,
      "byteOffset": 14632,
      "componentType": 5126,
      "count": 6005,
      "max": [
        0.7452906370162964,
        0.9748035669326782
      ],
      "min": [
        0.5237192511558533,
        0.5163686871528625
      ],
      "type": "VEC2"
    },
    {
      "bufferView": 0,
      "byteOffset": 33600,
      "componentType": 5125,
      "count": 34560,
      "type": "SCALAR"
    },
    {
      "bufferView": 2,
      "byteOffset": 188016,
      "componentType": 5126,
      "count": 5630,
      "max": [
        0.6600766777992249,
        0.5382179021835327,
        25.055091857910156
      ],
      "min": [
        -0.7268782258033752,
        -0.8768194317817688,
        0.8196506500244141
      ],
      "type": "VEC3"
    },
    {
      "bufferView": 2,
      "byteOffset": 255576,
      "componentType": 5126,
      "count": 5630,
      "max": [
        1.0,
        1.0,
        1.0
      ],
      "min": [
        -1.0,
        -1.0,
        -1.0
      ],
      "type": "VEC3"
    },
    {
      "bufferView": 1,
      "byteOffset": 62672,
      "componentType": 5126,
      "count": 5630,
      "max": [
        0.9971826672554016,
        0.9971827864646912
      ],
      "min": [
        0.002817386295646429,
        0.002817387692630291
      ],
      "type": "VEC2"
    },
    {
      "bufferView": 0,
      "byteOffset": 171840,
      "componentType": 5125,
      "count": 29328,
      "type": "SCALAR"
    }
  ],
  "asset": {
    "extras": {
      "author": "milaha (https://sketchfab.com/elenakozlova479)",
      "license": "CC-BY-4.0 (http://creativecommons.org/licenses/by/4.0/)",
      "source": "https://sketchfab.com/3d-models/flower-0fcaca93ce974129ba6188dda6e3b742",
      "title": "flower"
    },
    "generator": "Sketchfab-15.74.0",
    "version": "2.0"
  },
  "bufferViews": [
    {
      "buffer": 0,
      "byteLength": 289152,
      "name": "floatBufferViews",
      "target": 34963
    },
    {
      "buffer": 0,
      "byteLength": 107712,
      "byteOffset": 289152,
      "byteStride": 8,
      "name": "floatBufferViews",
      "target": 34962
    },
    {
      "buffer": 0,
      "byteLength": 323136,
      "byteOffset": 396864,
      "byteStride": 12,
      "name": "floatBufferViews",
      "target": 34962
    }
  ],
  "buffers": [
    {
      "byteLength": 720000,
      "uri": "scene.bin"
    }
  ],
  "extensionsUsed": [
    "KHR_materials_clearcoat",
    "KHR_materials_specular"
  ],
  "images": [
    {
      "uri": "textures/Material.001_baseColor.jpeg"
    },
    {
      "uri": "textures/Material.003_baseColor.png"
    }
  ],
  "materials": [
    {
      "doubleSided": true,
      "name": "Material.002",
      "pbrMetallicRoughness": {
        "baseColorFactor": [
          0.012252299999999997,
          0.048576499999999995,
          0.002882420000000001,
          1.0
        ],
        "metallicFactor": 0.0,
        "roughnessFactor": 0.2971437627238483
      }
    },
    {
      "doubleSided": true,
      "extensions": {
        "KHR_materials_clearcoat": {
          "clearcoatFactor": 0.4678109495190842,
          "clearcoatRoughnessFactor": 0.4373346661627921
        },
        "KHR_materials_specular": {
          "specularColorFactor": [
            1.0,
            1.0,
            1.0
          ],
          "specularFactor": 0.0
        }
      },
      "name": "Material.001",
      "pbrMetallicRoughness": {
        "baseColorFactor": [
          0.6811449330131292,
          0.6811449330131292,
          0.6811449330131292,
          1.0
        ],
        "baseColorTexture": {
          "index": 0
        },
        "metallicFactor": 0.20571491265497188,
        "roughnessFactor": 0.565335056259219
      }
    },
    {
      "doubleSided": true,
      "extensions": {
        "KHR_materials_specular": {
          "specularColorFactor": [
            1.0,
            1.0,
            1.0
          ],
          "specularFactor": 0.0
        }
      },
      "name": "Material.003",
      "pbrMetallicRoughness": {
        "baseColorTexture": {
          "index": 1
        },
        "metallicFactor": 0.0,
        "roughnessFactor": 0.6019065962867696
      }
    }
  ],
  "meshes": [
    {
      "name": "Cylinder.001_Material.002_0",
      "primitives": [
        {
          "attributes": {
            "NORMAL": 1,
            "POSITION": 0,
            "TEXCOORD_0": 2
          },
          "indices": 3,
          "material": 0,
          "mode": 4
        }
      ]
    },
    {
      "name": "Cylinder.001_Material.001_0",
      "primitives": [
        {
          "attributes": {
            "NORMAL": 5,
            "POSITION": 4,
            "TEXCOORD_0": 6
          },
          "indices": 7,
          "material": 1,
          "mode": 4
        }
      ]
    },
    {
      "name": "Cylinder.001_Material.003_0",
      "primitives": [
        {
          "attributes": {
            "NORMAL": 9,
            "POSITION": 8,
            "TEXCOORD_0": 10
          },
          "indices": 11,
          "material": 2,
          "mode": 4
        }
      ]
    }
  ],
  "nodes": [
    {
      "children": [
        1
      ],
      "matrix": [
        1.0,
        0.0,
        0.0,
        0.0,
        0.0,
        2.220446049250313e-16,
        -1.0,
        0.0,
        0.0,
        1.0,
        2.220446049250313e-16,
        0.0,
        0.0,
        0.0,
        0.0,
        1.0
      ],
      "name": "Sketchfab_model"
    },
    {
      "children": [
        2
      ],
      "matrix": [
        0.009999999776482582,
        0.0,
        0.0,
        0.0,
        0.0,
        0.0,
        0.009999999776482582,
        0.0,
        0.0,
        -0.009999999776482582,
        0.0,
        0.0,
        0.0,
        0.0,
        0.0,
        1.0
      ],
      "name": "b6312a1c7a8e4d2cbd19e32072bc09ee.fbx"
    },
    {
      "children": [
        3
      ],
      "name": "RootNode"
    },
    {
      "children": [
        4,
        5,
        6
      ],
      "matrix": [
        26.887807846069336,
        0.0,
        0.0,
        0.0,
        0.0,
        -4.380579921638631e-06,
        -26.88780784606898,
        0.0,
        0.0,
        6.715145587921054,
        -1.0940360813991718e-06,
        0.0,
        0.11906526237726212,
        8.35700511932373,
        -2.051468849182129,
        1.0
      ],
      "name": "Cylinder.001"
    },
    {
      "mesh": 0,
      "name": "Cylinder.001_Material.002_0"
    },
    {
      "mesh": 1,
      "name": "Cylinder.001_Material.001_0"
    },
    {
      "mesh": 2,
      "name": "Cylinder.001_Material.003_0"
    }
  ],
  "samplers": [
    {
      "magFilter": 9729,
      "minFilter": 9987,
      "wrapS": 10497,
      "wrapT": 10497
    }
  ],
  "scene": 0,
  "scenes": [
    {
      "name": "Sketchfab_Scene",
      "nodes": [
        0
      ]
    }
  ],
  "textures": [
    {
      "sampler": 0,
      "source": 0
    },
    {
      "sampler": 0,
      "source": 1
    }
  ]
}
