{
	"asset":{
		"generator":"Khronos glTF Blender I/O v5.0.21",
		"version":"2.0"
	},
	"scene":0,
	"scenes":[
		{
			"name":"Scene",
			"nodes":[
				3
			]
		}
	],
	"nodes":[
		{
			"mesh":0,
			"name":"Object_2"
		},
		{
			"mesh":1,
			"name":"Object_3"
		},
		{
			"children":[
				0,
				1
			],
			"name":"c3dcb1f8e4154e5a96b0b15028874520.obj.cleaner.materialmerger.gles"
		},
		{
			"children":[
				2
			],
			"name":"Sketchfab_model"
		}
	],
	"materials":[
		{
			"doubleSided":true,
			"name":"standardSurface2SG",
			"pbrMetallicRoughness":{
				"baseColorTexture":{
					"index":0
				},
				"metallicFactor":0,
				"metallicRoughnessTexture":{
					"index":1
				}
			}
		},
		{
			"doubleSided":true,
			"emissiveFactor":[
				1,
				1,
				1
			],
			"emissiveTexture":{
				"index":2
			},
			"name":"standardSurface3SG",
			"pbrMetallicRoughness":{
				"baseColorTexture":{
					"index":3
				},
				"metallicFactor":0,
				"metallicRoughnessTexture":{
					"index":4
				}
			}
		}
	],
	"meshes":[
		{
			"name":"Object_0",
			"primitives":[
				{
					"attributes":{
						"POSITION":0,
						"NORMAL":1,
						"TEXCOORD_0":2
					},
					"indices":3,
					"material":0
				}
			]
		},
		{
			"name":"Object_1",
			"primitives":[
				{
					"attributes":{
						"POSITION":4,
						"NORMAL":5,
						"TEXCOORD_0":6
					},
					"indices":7,
					"material":1
				}
			]
		}
	],
	"textures":[
		{
			"sampler":0,
			"source":0
		},
		{
			"sampler":0,
			"source":1
		},
		{
			"sampler":0,
			"source":2
		},
		{
			"sampler":0,
			"source":3
		},
		{
			"sampler":0,
			"source":4
		}
	],
	"images":[
		{
			"mimeType":"image/png",
			"name":"standardSurface2SG_baseColor",
			"uri":"standardSurface2SG_baseColor.png"
		},
		{
			"mimeType":"image/png",
			"name":"standardSurface2SG_metallicRoughness",
			"uri":"standardSurface2SG_metallicRoughness.png"
		},
		{
			"mimeType":"image/png",
			"name":"standardSurface3SG_emissive",
			"uri":"standardSurface3SG_emissive.png"
		},
		{
			"mimeType":"image/png",
			"name":"standardSurface3SG_baseColor",
			"uri":"standardSurface3SG_baseColor.png"
		},
		{
			"mimeType":"image/png",
			"name":"standardSurface3SG_metallicRoughness",
			"uri":"standardSurface3SG_metallicRoughness.png"
		}
	],
	"accessors":[
		{
			"bufferView":0,
			"componentType":5126,
			"count":483,
			"max":[
				1.7469799518585205,
				7.7317705154418945,
				3.93432879447937
			],
			"min":[
				-5.612904071807861,
				-0.0918021947145462,
				-2.7202248573303223
			],
			"type":"VEC3"
		},
		{
			"bufferView":1,
			"componentType":5126,
			"count":483,
			"type":"VEC3"
		},
		{
			"bufferView":2,
			"componentType":5126,
			"count":483,
			"type":"VEC2"
		},
		{
			"bufferView":3,
			"componentType":5123,
			"count":2016,
			"type":"SCALAR"
		},
		{
			"bufferView":4,
			"componentType":5126,
			"count":315,
			"max":[
				3.722320079803467,
				10.991904258728027,
				5.559026718139648
			],
			"min":[
				-9.010360717773438,
				2.5561091899871826,
				-4.974419116973877
			],
			"type":"VEC3"
		},
		{
			"bufferView":5,
			"componentType":5126,
			"count":315,
			"type":"VEC3"
		},
		{
			"bufferView":6,
			"componentType":5126,
			"count":315,
			"type":"VEC2"
		},
		{
			"bufferView":7,
			"componentType":5123,
			"count":1152,
			"type":"SCALAR"
		}
	],
	"bufferViews":[
		{
			"buffer":0,
			"byteLength":5796,
			"byteOffset":0,
			"target":34962
		},
		{
			"buffer":0,
			"byteLength":5796,
			"byteOffset":5796,
			"target":34962
		},
		{
			"buffer":0,
			"byteLength":3864,
			"byteOffset":11592,
			"target":34962
		},
		{
			"buffer":0,
			"byteLength":4032,
			"byteOffset":15456,
			"target":34963
		},
		{
			"buffer":0,
			"byteLength":3780,
			"byteOffset":19488,
			"target":34962
		},
		{
			"buffer":0,
			"byteLength":3780,
			"byteOffset":23268,
			"target":34962
		},
		{
			"buffer":0,
			"byteLength":2520,
			"byteOffset":27048,
			"target":34962
		},
		{
			"buffer":0,
			"byteLength":2304,
			"byteOffset":29568,
			"target":34963
		}
	],
	"samplers":[
		{
			"magFilter":9729,
			"minFilter":9987
		}
	],
	"buffers":[
		{
			"byteLength":31872,
			"uri":"mushrooms.bin"
		}
	]
}
