{
	"asset":{
		"generator":"Khronos glTF Blender I/O v5.0.21",
		"version":"2.0"
	},
	"scene":0,
	"scenes":[
		{
			"name":"Scene",
			"nodes":[
				0,
				1,
				2,
				3,
				4,
				5,
				6,
				7,
				8,
				9,
				10,
				11,
				12,
				13,
				14,
				15,
				16,
				17,
				18,
				19,
				20
			]
		}
	],
	"nodes":[
		{
			"extras":{
				"collisions":true
			},
			"mesh":0,
			"name":"Cube",
			"rotation":[
				1,
				0,
				0,
				4.371138828673793e-08
			],
			"scale":[
				0.550861120223999,
				1.6962075233459473,
				4.018060684204102
			],
			"translation":[
				-13.585241317749023,
				14.74594783782959,
				-52.628875732421875
			]
		},
		{
			"extras":{
				"collisions":true
			},
			"mesh":1,
			"name":"Cube.001",
			"rotation":[
				1,
				0,
				0,
				4.371138828673793e-08
			],
			"scale":[
				0.550861120223999,
				1.6962075233459473,
				4.018060684204102
			],
			"translation":[
				-25.994470596313477,
				14.255183219909668,
				-52.628875732421875
			]
		},
		{
			"extras":{
				"collisions":true
			},
			"mesh":2,
			"name":"Cube.002",
			"rotation":[
				1,
				0,
				0,
				4.371138828673793e-08
			],
			"scale":[
				0.5290332436561584,
				1.6962075233459473,
				0.9906784892082214
			],
			"translation":[
				-12.599164009094238,
				14.255183219909668,
				-27.966917037963867
			]
		},
		{
			"extras":{
				"collisions":true
			},
			"mesh":3,
			"name":"Cube.003",
			"rotation":[
				1,
				0,
				0,
				4.371138828673793e-08
			],
			"scale":[
				0.5290332436561584,
				1.6962075233459473,
				0.9906784892082214
			],
			"translation":[
				-10.879985809326172,
				14.255183219909668,
				-18.830768585205078
			]
		},
		{
			"extras":{
				"collisions":true
			},
			"mesh":4,
			"name":"Cube.004",
			"rotation":[
				1,
				0,
				0,
				4.371138828673793e-08
			],
			"scale":[
				0.5290332436561584,
				1.6962075233459473,
				0.9906784892082214
			],
			"translation":[
				-22.69933319091797,
				14.255183219909668,
				-17.45408821105957
			]
		},
		{
			"extras":{
				"collisions":true
			},
			"mesh":5,
			"name":"Cube.005",
			"rotation":[
				1,
				0,
				0,
				4.371138828673793e-08
			],
			"scale":[
				0.5290332436561584,
				1.6962075233459473,
				1.154754400253296
			],
			"translation":[
				-24.31106185913086,
				14.255183219909668,
				-27.466304779052734
			]
		},
		{
			"extras":{
				"collisions":true
			},
			"mesh":6,
			"name":"Cube.006",
			"rotation":[
				1,
				0,
				0,
				4.371138828673793e-08
			],
			"scale":[
				0.36645448207855225,
				1.6962075233459473,
				0.7962609529495239
			],
			"translation":[
				-12.491716384887695,
				14.255183219909668,
				-10.195228576660156
			]
		},
		{
			"extras":{
				"collisions":true
			},
			"mesh":7,
			"name":"Cube.007",
			"rotation":[
				1,
				0,
				0,
				4.371138828673793e-08
			],
			"scale":[
				0.7402833700180054,
				1.6962075233459473,
				0.5751525163650513
			],
			"translation":[
				-21.649816513061523,
				14.255183219909668,
				-72.27606201171875
			]
		},
		{
			"extras":{
				"collisions":true
			},
			"mesh":8,
			"name":"Cube.008",
			"scale":[
				0.36645448207855225,
				1.6962075233459473,
				0.7962609529495239
			],
			"translation":[
				-23.165390014648438,
				14.255183219909668,
				-11.841914176940918
			]
		},
		{
			"extras":{
				"collisions":true
			},
			"mesh":9,
			"name":"Cube.009",
			"scale":[
				0.36645448207855225,
				1.6962075233459473,
				0.5482457280158997
			],
			"translation":[
				-14.039671897888184,
				14.255183219909668,
				-3.8025898933410645
			]
		},
		{
			"extras":{
				"collisions":true
			},
			"mesh":10,
			"name":"Cube.010",
			"scale":[
				0.36645448207855225,
				1.6962075233459473,
				0.3684642016887665
			],
			"translation":[
				-25.193330764770508,
				14.255183219909668,
				-6.916922569274902
			]
		},
		{
			"extras":{
				"collisions":true
			},
			"mesh":11,
			"name":"Cube.011",
			"scale":[
				0.36645448207855225,
				1.6962075233459473,
				0.3684642016887665
			],
			"translation":[
				-15.777907371520996,
				14.255183219909668,
				0.39813798666000366
			]
		},
		{
			"extras":{
				"collisions":true
			},
			"mesh":12,
			"name":"Cube.012",
			"scale":[
				0.36645448207855225,
				1.6962075233459473,
				0.3684642016887665
			],
			"translation":[
				-17.371286392211914,
				14.255183219909668,
				3.5124711990356445
			]
		},
		{
			"extras":{
				"collisions":true
			},
			"mesh":13,
			"name":"Cube.013",
			"scale":[
				0.36645448207855225,
				1.6962075233459473,
				0.3684642016887665
			],
			"translation":[
				-19.833782196044922,
				14.255183219909668,
				6.26467227935791
			]
		},
		{
			"extras":{
				"collisions":true
			},
			"mesh":14,
			"name":"Cube.014",
			"scale":[
				0.36645448207855225,
				1.6962075233459473,
				0.3684642016887665
			],
			"translation":[
				-23.672378540039062,
				14.255183219909668,
				8.292610168457031
			]
		},
		{
			"extras":{
				"collisions":true
			},
			"mesh":15,
			"name":"Cube.015",
			"scale":[
				0.36645448207855225,
				1.6962075233459473,
				0.3684642016887665
			],
			"translation":[
				-27.148841857910156,
				14.255183219909668,
				10.537827491760254
			]
		},
		{
			"extras":{
				"collisions":true
			},
			"mesh":16,
			"name":"Cube.016",
			"scale":[
				0.7216078042984009,
				1.6962075233459473,
				0.8017072677612305
			],
			"translation":[
				-33.2326545715332,
				14.255183219909668,
				9.523858070373535
			]
		},
		{
			"extras":{
				"collisions":true
			},
			"mesh":17,
			"name":"Cube.017",
			"scale":[
				0.5111221075057983,
				1.6962075233459473,
				0.3684642016887665
			],
			"translation":[
				-34.681182861328125,
				14.255183219909668,
				3.9470295906066895
			]
		},
		{
			"extras":{
				"collisions":true
			},
			"mesh":18,
			"name":"Cube.018",
			"scale":[
				0.36472928524017334,
				1.6962075233459473,
				0.3684642016887665
			],
			"translation":[
				-31.49442481994629,
				14.255183219909668,
				0.9051227569580078
			]
		},
		{
			"extras":{
				"collisions":true
			},
			"mesh":19,
			"name":"Cube.019",
			"scale":[
				0.36472928524017334,
				1.6962075233459473,
				0.3684642016887665
			],
			"translation":[
				-28.669797897338867,
				14.255183219909668,
				-0.9779621362686157
			]
		},
		{
			"extras":{
				"collisions":true
			},
			"mesh":20,
			"name":"Cube.020",
			"scale":[
				0.36472928524017334,
				1.6962075233459473,
				0.3684642016887665
			],
			"translation":[
				-26.859140396118164,
				14.255183219909668,
				-4.01986837387085
			]
		}
	],
	"meshes":[
		{
			"name":"Cube",
			"primitives":[
				{
					"attributes":{
						"POSITION":0,
						"NORMAL":1,
						"TEXCOORD_0":2
					},
					"indices":3
				}
			]
		},
		{
			"name":"Cube.001",
			"primitives":[
				{
					"attributes":{
						"POSITION":4,
						"NORMAL":5,
						"TEXCOORD_0":6
					},
					"indices":3
				}
			]
		},
		{
			"name":"Cube.002",
			"primitives":[
				{
					"attributes":{
						"POSITION":7,
						"NORMAL":8,
						"TEXCOORD_0":9
					},
					"indices":3
				}
			]
		},
		{
			"name":"Cube.003",
			"primitives":[
				{
					"attributes":{
						"POSITION":10,
						"NORMAL":11,
						"TEXCOORD_0":12
					},
					"indices":3
				}
			]
		},
		{
			"name":"Cube.004",
			"primitives":[
				{
					"attributes":{
						"POSITION":13,
						"NORMAL":14,
						"TEXCOORD_0":15
					},
					"indices":3
				}
			]
		},
		{
			"name":"Cube.005",
			"primitives":[
				{
					"attributes":{
						"POSITION":16,
						"NORMAL":17,
						"TEXCOORD_0":18
					},
					"indices":3
				}
			]
		},
		{
			"name":"Cube.006",
			"primitives":[
				{
					"attributes":{
						"POSITION":19,
						"NORMAL":20,
						"TEXCOORD_0":21
					},
					"indices":3
				}
			]
		},
		{
			"name":"Cube.009",
			"primitives":[
				{
					"attributes":{
						"POSITION":22,
						"NORMAL":23,
						"TEXCOORD_0":24
					},
					"indices":3
				}
			]
		},
		{
			"name":"Cube.010",
			"primitives":[
				{
					"attributes":{
						"POSITION":25,
						"NORMAL":26,
						"TEXCOORD_0":27
					},
					"indices":3
				}
			]
		},
		{
			"name":"Cube.011",
			"primitives":[
				{
					"attributes":{
						"POSITION":28,
						"NORMAL":29,
						"TEXCOORD_0":30
					},
					"indices":3
				}
			]
		},
		{
			"name":"Cube.012",
			"primitives":[
				{
					"attributes":{
						"POSITION":31,
						"NORMAL":32,
						"TEXCOORD_0":33
					},
					"indices":3
				}
			]
		},
		{
			"name":"Cube.013",
			"primitives":[
				{
					"attributes":{
						"POSITION":34,
						"NORMAL":35,
						"TEXCOORD_0":36
					},
					"indices":3
				}
			]
		},
		{
			"name":"Cube.014",
			"primitives":[
				{
					"attributes":{
						"POSITION":37,
						"NORMAL":38,
						"TEXCOORD_0":39
					},
					"indices":3
				}
			]
		},
		{
			"name":"Cube.015",
			"primitives":[
				{
					"attributes":{
						"POSITION":40,
						"NORMAL":41,
						"TEXCOORD_0":42
					},
					"indices":3
				}
			]
		},
		{
			"name":"Cube.016",
			"primitives":[
				{
					"attributes":{
						"POSITION":43,
						"NORMAL":44,
						"TEXCOORD_0":45
					},
					"indices":3
				}
			]
		},
		{
			"name":"Cube.017",
			"primitives":[
				{
					"attributes":{
						"POSITION":46,
						"NORMAL":47,
						"TEXCOORD_0":48
					},
					"indices":3
				}
			]
		},
		{
			"name":"Cube.018",
			"primitives":[
				{
					"attributes":{
						"POSITION":49,
						"NORMAL":50,
						"TEXCOORD_0":51
					},
					"indices":3
				}
			]
		},
		{
			"name":"Cube.019",
			"primitives":[
				{
					"attributes":{
						"POSITION":52,
						"NORMAL":53,
						"TEXCOORD_0":54
					},
					"indices":3
				}
			]
		},
		{
			"name":"Cube.020",
			"primitives":[
				{
					"attributes":{
						"POSITION":55,
						"NORMAL":56,
						"TEXCOORD_0":57
					},
					"indices":3
				}
			]
		},
		{
			"name":"Cube.021",
			"primitives":[
				{
					"attributes":{
						"POSITION":58,
						"NORMAL":59,
						"TEXCOORD_0":60
					},
					"indices":3
				}
			]
		},
		{
			"name":"Cube.022",
			"primitives":[
				{
					"attributes":{
						"POSITION":61,
						"NORMAL":62,
						"TEXCOORD_0":63
					},
					"indices":3
				}
			]
		}
	],
	"accessors":[
		{
			"bufferView":0,
			"componentType":5126,
			"count":24,
			"max":[
				6.56182861328125,
				3.1035165786743164,
				5.127785682678223
			],
			"min":[
				-6.56182861328125,
				-3.1035165786743164,
				-5.127785682678223
			],
			"type":"VEC3"
		},
		{
			"bufferView":1,
			"componentType":5126,
			"count":24,
			"type":"VEC3"
		},
		{
			"bufferView":2,
			"componentType":5126,
			"count":24,
			"type":"VEC2"
		},
		{
			"bufferView":3,
			"componentType":5123,
			"count":36,
			"type":"SCALAR"
		},
		{
			"bufferView":4,
			"componentType":5126,
			"count":24,
			"max":[
				6.56182861328125,
				3.1035165786743164,
				5.127785682678223
			],
			"min":[
				-6.56182861328125,
				-3.1035165786743164,
				-5.127785682678223
			],
			"type":"VEC3"
		},
		{
			"bufferView":5,
			"componentType":5126,
			"count":24,
			"type":"VEC3"
		},
		{
			"bufferView":6,
			"componentType":5126,
			"count":24,
			"type":"VEC2"
		},
		{
			"bufferView":7,
			"componentType":5126,
			"count":24,
			"max":[
				6.56182861328125,
				3.1035165786743164,
				5.127785682678223
			],
			"min":[
				-6.56182861328125,
				-3.1035165786743164,
				-5.127785682678223
			],
			"type":"VEC3"
		},
		{
			"bufferView":8,
			"componentType":5126,
			"count":24,
			"type":"VEC3"
		},
		{
			"bufferView":9,
			"componentType":5126,
			"count":24,
			"type":"VEC2"
		},
		{
			"bufferView":10,
			"componentType":5126,
			"count":24,
			"max":[
				6.56182861328125,
				3.1035165786743164,
				5.127785682678223
			],
			"min":[
				-6.56182861328125,
				-3.1035165786743164,
				-5.127785682678223
			],
			"type":"VEC3"
		},
		{
			"bufferView":11,
			"componentType":5126,
			"count":24,
			"type":"VEC3"
		},
		{
			"bufferView":12,
			"componentType":5126,
			"count":24,
			"type":"VEC2"
		},
		{
			"bufferView":13,
			"componentType":5126,
			"count":24,
			"max":[
				6.56182861328125,
				3.1035165786743164,
				5.127785682678223
			],
			"min":[
				-6.56182861328125,
				-3.1035165786743164,
				-5.127785682678223
			],
			"type":"VEC3"
		},
		{
			"bufferView":14,
			"componentType":5126,
			"count":24,
			"type":"VEC3"
		},
		{
			"bufferView":15,
			"componentType":5126,
			"count":24,
			"type":"VEC2"
		},
		{
			"bufferView":16,
			"componentType":5126,
			"count":24,
			"max":[
				6.56182861328125,
				3.1035165786743164,
				5.127785682678223
			],
			"min":[
				-6.56182861328125,
				-3.1035165786743164,
				-5.127785682678223
			],
			"type":"VEC3"
		},
		{
			"bufferView":17,
			"componentType":5126,
			"count":24,
			"type":"VEC3"
		},
		{
			"bufferView":18,
			"componentType":5126,
			"count":24,
			"type":"VEC2"
		},
		{
			"bufferView":19,
			"componentType":5126,
			"count":24,
			"max":[
				6.56182861328125,
				3.1035165786743164,
				5.127785682678223
			],
			"min":[
				-6.56182861328125,
				-3.1035165786743164,
				-5.127785682678223
			],
			"type":"VEC3"
		},
		{
			"bufferView":20,
			"componentType":5126,
			"count":24,
			"type":"VEC3"
		},
		{
			"bufferView":21,
			"componentType":5126,
			"count":24,
			"type":"VEC2"
		},
		{
			"bufferView":22,
			"componentType":5126,
			"count":24,
			"max":[
				6.56182861328125,
				3.1035165786743164,
				5.127785682678223
			],
			"min":[
				-6.56182861328125,
				-3.1035165786743164,
				-5.127785682678223
			],
			"type":"VEC3"
		},
		{
			"bufferView":23,
			"componentType":5126,
			"count":24,
			"type":"VEC3"
		},
		{
			"bufferView":24,
			"componentType":5126,
			"count":24,
			"type":"VEC2"
		},
		{
			"bufferView":25,
			"componentType":5126,
			"count":24,
			"max":[
				6.56182861328125,
				3.1035165786743164,
				5.127785682678223
			],
			"min":[
				-6.56182861328125,
				-3.1035165786743164,
				-5.127785682678223
			],
			"type":"VEC3"
		},
		{
			"bufferView":26,
			"componentType":5126,
			"count":24,
			"type":"VEC3"
		},
		{
			"bufferView":27,
			"componentType":5126,
			"count":24,
			"type":"VEC2"
		},
		{
			"bufferView":28,
			"componentType":5126,
			"count":24,
			"max":[
				6.56182861328125,
				3.1035165786743164,
				5.127785682678223
			],
			"min":[
				-6.56182861328125,
				-3.1035165786743164,
				-5.127785682678223
			],
			"type":"VEC3"
		},
		{
			"bufferView":29,
			"componentType":5126,
			"count":24,
			"type":"VEC3"
		},
		{
			"bufferView":30,
			"componentType":5126,
			"count":24,
			"type":"VEC2"
		},
		{
			"bufferView":31,
			"componentType":5126,
			"count":24,
			"max":[
				6.56182861328125,
				3.1035165786743164,
				5.127785682678223
			],
			"min":[
				-6.56182861328125,
				-3.1035165786743164,
				-5.127785682678223
			],
			"type":"VEC3"
		},
		{
			"bufferView":32,
			"componentType":5126,
			"count":24,
			"type":"VEC3"
		},
		{
			"bufferView":33,
			"componentType":5126,
			"count":24,
			"type":"VEC2"
		},
		{
			"bufferView":34,
			"componentType":5126,
			"count":24,
			"max":[
				6.56182861328125,
				3.1035165786743164,
				5.127785682678223
			],
			"min":[
				-6.56182861328125,
				-3.1035165786743164,
				-5.127785682678223
			],
			"type":"VEC3"
		},
		{
			"bufferView":35,
			"componentType":5126,
			"count":24,
			"type":"VEC3"
		},
		{
			"bufferView":36,
			"componentType":5126,
			"count":24,
			"type":"VEC2"
		},
		{
			"bufferView":37,
			"componentType":5126,
			"count":24,
			"max":[
				6.56182861328125,
				3.1035165786743164,
				5.127785682678223
			],
			"min":[
				-6.56182861328125,
				-3.1035165786743164,
				-5.127785682678223
			],
			"type":"VEC3"
		},
		{
			"bufferView":38,
			"componentType":5126,
			"count":24,
			"type":"VEC3"
		},
		{
			"bufferView":39,
			"componentType":5126,
			"count":24,
			"type":"VEC2"
		},
		{
			"bufferView":40,
			"componentType":5126,
			"count":24,
			"max":[
				6.56182861328125,
				3.1035165786743164,
				5.127785682678223
			],
			"min":[
				-6.56182861328125,
				-3.1035165786743164,
				-5.127785682678223
			],
			"type":"VEC3"
		},
		{
			"bufferView":41,
			"componentType":5126,
			"count":24,
			"type":"VEC3"
		},
		{
			"bufferView":42,
			"componentType":5126,
			"count":24,
			"type":"VEC2"
		},
		{
			"bufferView":43,
			"componentType":5126,
			"count":24,
			"max":[
				6.56182861328125,
				3.1035165786743164,
				5.127785682678223
			],
			"min":[
				-6.56182861328125,
				-3.1035165786743164,
				-5.127785682678223
			],
			"type":"VEC3"
		},
		{
			"bufferView":44,
			"componentType":5126,
			"count":24,
			"type":"VEC3"
		},
		{
			"bufferView":45,
			"componentType":5126,
			"count":24,
			"type":"VEC2"
		},
		{
			"bufferView":46,
			"componentType":5126,
			"count":24,
			"max":[
				6.56182861328125,
				3.1035165786743164,
				5.127785682678223
			],
			"min":[
				-6.56182861328125,
				-3.1035165786743164,
				-5.127785682678223
			],
			"type":"VEC3"
		},
		{
			"bufferView":47,
			"componentType":5126,
			"count":24,
			"type":"VEC3"
		},
		{
			"bufferView":48,
			"componentType":5126,
			"count":24,
			"type":"VEC2"
		},
		{
			"bufferView":49,
			"componentType":5126,
			"count":24,
			"max":[
				6.56182861328125,
				3.1035165786743164,
				5.127785682678223
			],
			"min":[
				-6.56182861328125,
				-3.1035165786743164,
				-5.127785682678223
			],
			"type":"VEC3"
		},
		{
			"bufferView":50,
			"componentType":5126,
			"count":24,
			"type":"VEC3"
		},
		{
			"bufferView":51,
			"componentType":5126,
			"count":24,
			"type":"VEC2"
		},
		{
			"bufferView":52,
			"componentType":5126,
			"count":24,
			"max":[
				6.56182861328125,
				3.1035165786743164,
				5.127785682678223
			],
			"min":[
				-6.56182861328125,
				-3.1035165786743164,
				-5.127785682678223
			],
			"type":"VEC3"
		},
		{
			"bufferView":53,
			"componentType":5126,
			"count":24,
			"type":"VEC3"
		},
		{
			"bufferView":54,
			"componentType":5126,
			"count":24,
			"type":"VEC2"
		},
		{
			"bufferView":55,
			"componentType":5126,
			"count":24,
			"max":[
				6.56182861328125,
				3.1035165786743164,
				5.127785682678223
			],
			"min":[
				-6.56182861328125,
				-3.1035165786743164,
				-5.127785682678223
			],
			"type":"VEC3"
		},
		{
			"bufferView":56,
			"componentType":5126,
			"count":24,
			"type":"VEC3"
		},
		{
			"bufferView":57,
			"componentType":5126,
			"count":24,
			"type":"VEC2"
		},
		{
			"bufferView":58,
			"componentType":5126,
			"count":24,
			"max":[
				6.56182861328125,
				3.1035165786743164,
				5.127785682678223
			],
			"min":[
				-6.56182861328125,
				-3.1035165786743164,
				-5.127785682678223
			],
			"type":"VEC3"
		},
		{
			"bufferView":59,
			"componentType":5126,
			"count":24,
			"type":"VEC3"
		},
		{
			"bufferView":60,
			"componentType":5126,
			"count":24,
			"type":"VEC2"
		},
		{
			"bufferView":61,
			"componentType":5126,
			"count":24,
			"max":[
				6.56182861328125,
				3.1035165786743164,
				5.127785682678223
			],
			"min":[
				-6.56182861328125,
				-3.1035165786743164,
				-5.127785682678223
			],
			"type":"VEC3"
		},
		{
			"bufferView":62,
			"componentType":5126,
			"count":24,
			"type":"VEC3"
		},
		{
			"bufferView":63,
			"componentType":5126,
			"count":24,
			"type":"VEC2"
		}
	],
	"bufferViews":[
		{
			"buffer":0,
			"byteLength":288,
			"byteOffset":0,
			"target":34962
		},
		{
			"buffer":0,
			"byteLength":288,
			"byteOffset":288,
			"target":34962
		},
		{
			"buffer":0,
			"byteLength":192,
			"byteOffset":576,
			"target":34962
		},
		{
			"buffer":0,
			"byteLength":72,
			"byteOffset":768,
			"target":34963
		},
		{
			"buffer":0,
			"byteLength":288,
			"byteOffset":840,
			"target":34962
		},
		{
			"buffer":0,
			"byteLength":288,
			"byteOffset":1128,
			"target":34962
		},
		{
			"buffer":0,
			"byteLength":192,
			"byteOffset":1416,
			"target":34962
		},
		{
			"buffer":0,
			"byteLength":288,
			"byteOffset":1608,
			"target":34962
		},
		{
			"buffer":0,
			"byteLength":288,
			"byteOffset":1896,
			"target":34962
		},
		{
			"buffer":0,
			"byteLength":192,
			"byteOffset":2184,
			"target":34962
		},
		{
			"buffer":0,
			"byteLength":288,
			"byteOffset":2376,
			"target":34962
		},
		{
			"buffer":0,
			"byteLength":288,
			"byteOffset":2664,
			"target":34962
		},
		{
			"buffer":0,
			"byteLength":192,
			"byteOffset":2952,
			"target":34962
		},
		{
			"buffer":0,
			"byteLength":288,
			"byteOffset":3144,
			"target":34962
		},
		{
			"buffer":0,
			"byteLength":288,
			"byteOffset":3432,
			"target":34962
		},
		{
			"buffer":0,
			"byteLength":192,
			"byteOffset":3720,
			"target":34962
		},
		{
			"buffer":0,
			"byteLength":288,
			"byteOffset":3912,
			"target":34962
		},
		{
			"buffer":0,
			"byteLength":288,
			"byteOffset":4200,
			"target":34962
		},
		{
			"buffer":0,
			"byteLength":192,
			"byteOffset":4488,
			"target":34962
		},
		{
			"buffer":0,
			"byteLength":288,
			"byteOffset":4680,
			"target":34962
		},
		{
			"buffer":0,
			"byteLength":288,
			"byteOffset":4968,
			"target":34962
		},
		{
			"buffer":0,
			"byteLength":192,
			"byteOffset":5256,
			"target":34962
		},
		{
			"buffer":0,
			"byteLength":288,
			"byteOffset":5448,
			"target":34962
		},
		{
			"buffer":0,
			"byteLength":288,
			"byteOffset":5736,
			"target":34962
		},
		{
			"buffer":0,
			"byteLength":192,
			"byteOffset":6024,
			"target":34962
		},
		{
			"buffer":0,
			"byteLength":288,
			"byteOffset":6216,
			"target":34962
		},
		{
			"buffer":0,
			"byteLength":288,
			"byteOffset":6504,
			"target":34962
		},
		{
			"buffer":0,
			"byteLength":192,
			"byteOffset":6792,
			"target":34962
		},
		{
			"buffer":0,
			"byteLength":288,
			"byteOffset":6984,
			"target":34962
		},
		{
			"buffer":0,
			"byteLength":288,
			"byteOffset":7272,
			"target":34962
		},
		{
			"buffer":0,
			"byteLength":192,
			"byteOffset":7560,
			"target":34962
		},
		{
			"buffer":0,
			"byteLength":288,
			"byteOffset":7752,
			"target":34962
		},
		{
			"buffer":0,
			"byteLength":288,
			"byteOffset":8040,
			"target":34962
		},
		{
			"buffer":0,
			"byteLength":192,
			"byteOffset":8328,
			"target":34962
		},
		{
			"buffer":0,
			"byteLength":288,
			"byteOffset":8520,
			"target":34962
		},
		{
			"buffer":0,
			"byteLength":288,
			"byteOffset":8808,
			"target":34962
		},
		{
			"buffer":0,
			"byteLength":192,
			"byteOffset":9096,
			"target":34962
		},
		{
			"buffer":0,
			"byteLength":288,
			"byteOffset":9288,
			"target":34962
		},
		{
			"buffer":0,
			"byteLength":288,
			"byteOffset":9576,
			"target":34962
		},
		{
			"buffer":0,
			"byteLength":192,
			"byteOffset":9864,
			"target":34962
		},
		{
			"buffer":0,
			"byteLength":288,
			"byteOffset":10056,
			"target":34962
		},
		{
			"buffer":0,
			"byteLength":288,
			"byteOffset":10344,
			"target":34962
		},
		{
			"buffer":0,
			"byteLength":192,
			"byteOffset":10632,
			"target":34962
		},
		{
			"buffer":0,
			"byteLength":288,
			"byteOffset":10824,
			"target":34962
		},
		{
			"buffer":0,
			"byteLength":288,
			"byteOffset":11112,
			"target":34962
		},
		{
			"buffer":0,
			"byteLength":192,
			"byteOffset":11400,
			"target":34962
		},
		{
			"buffer":0,
			"byteLength":288,
			"byteOffset":11592,
			"target":34962
		},
		{
			"buffer":0,
			"byteLength":288,
			"byteOffset":11880,
			"target":34962
		},
		{
			"buffer":0,
			"byteLength":192,
			"byteOffset":12168,
			"target":34962
		},
		{
			"buffer":0,
			"byteLength":288,
			"byteOffset":12360,
			"target":34962
		},
		{
			"buffer":0,
			"byteLength":288,
			"byteOffset":12648,
			"target":34962
		},
		{
			"buffer":0,
			"byteLength":192,
			"byteOffset":12936,
			"target":34962
		},
		{
			"buffer":0,
			"byteLength":288,
			"byteOffset":13128,
			"target":34962
		},
		{
			"buffer":0,
			"byteLength":288,
			"byteOffset":13416,
			"target":34962
		},
		{
			"buffer":0,
			"byteLength":192,
			"byteOffset":13704,
			"target":34962
		},
		{
			"buffer":0,
			"byteLength":288,
			"byteOffset":13896,
			"target":34962
		},
		{
			"buffer":0,
			"byteLength":288,
			"byteOffset":14184,
			"target":34962
		},
		{
			"buffer":0,
			"byteLength":192,
			"byteOffset":14472,
			"target":34962
		},
		{
			"buffer":0,
			"byteLength":288,
			"byteOffset":14664,
			"target":34962
		},
		{
			"buffer":0,
			"byteLength":288,
			"byteOffset":14952,
			"target":34962
		},
		{
			"buffer":0,
			"byteLength":192,
			"byteOffset":15240,
			"target":34962
		},
		{
			"buffer":0,
			"byteLength":288,
			"byteOffset":15432,
			"target":34962
		},
		{
			"buffer":0,
			"byteLength":288,
			"byteOffset":15720,
			"target":34962
		},
		{
			"buffer":0,
			"byteLength":192,
			"byteOffset":16008,
			"target":34962
		}
	],
	"buffers":[
		{
			"byteLength":16200,
			"uri":"cave_lil.bin"
		}
	]
}
