{
	"asset":{
		"generator":"Khronos glTF Blender I/O v5.0.21",
		"version":"2.0"
	},
	"scene":0,
	"scenes":[
		{
			"name":"Scene",
			"nodes":[
				0
			]
		}
	],
	"nodes":[
		{
			"mesh":0,
			"name":"Cube026_1k_0.003",
			"rotation":[
				0,
				-0.70710688829422,
				-0.7071066498756409,
				1.376787679419067e-07
			],
			"scale":[
				9.999999046325684,
				9.999998092651367,
				9.999998092651367
			],
			"translation":[
				-20.432079315185547,
				15.167366027832031,
				-31.964324951171875
			]
		}
	],
	"meshes":[
		{
			"name":"Mesh_0.004",
			"primitives":[
				{
					"attributes":{
						"POSITION":0,
						"NORMAL":1,
						"TEXCOORD_0":2
					},
					"indices":3
				}
			]
		}
	],
	"accessors":[
		{
			"bufferView":0,
			"componentType":5126,
			"count":1100,
			"max":[
				1.5600206851959229,
				4.374650001525879,
				-0.3498038649559021
			],
			"min":[
				-0.8153194189071655,
				-4.0096893310546875,
				-0.5830138921737671
			],
			"type":"VEC3"
		},
		{
			"bufferView":1,
			"componentType":5126,
			"count":1100,
			"type":"VEC3"
		},
		{
			"bufferView":2,
			"componentType":5126,
			"count":1100,
			"type":"VEC2"
		},
		{
			"bufferView":3,
			"componentType":5123,
			"count":5700,
			"type":"SCALAR"
		}
	],
	"bufferViews":[
		{
			"buffer":0,
			"byteLength":13200,
			"byteOffset":0,
			"target":34962
		},
		{
			"buffer":0,
			"byteLength":13200,
			"byteOffset":13200,
			"target":34962
		},
		{
			"buffer":0,
			"byteLength":8800,
			"byteOffset":26400,
			"target":34962
		},
		{
			"buffer":0,
			"byteLength":11400,
			"byteOffset":35200,
			"target":34963
		}
	],
	"buffers":[
		{
			"byteLength":46600,
			"uri":"floor.bin"
		}
	]
}
