{
	"asset":{
		"generator":"Khronos glTF Blender I/O v5.0.21",
		"version":"2.0"
	},
	"scene":0,
	"scenes":[
		{
			"name":"Scene",
			"nodes":[
				0
			]
		}
	],
	"nodes":[
		{
			"extras":{
				"prop":1.0
			},
			"mesh":0,
			"name":"BackSide_0.005",
			"rotation":[
				-0.70710688829422,
				0,
				0,
				0.7071066498756409
			],
			"scale":[
				0.3937007784843445,
				0.3937007486820221,
				0.3937007486820221
			],
			"translation":[
				0.12353515625,
				23.68794059753418,
				-0.03174544870853424
			]
		}
	],
	"meshes":[
		{
			"name":"BackSide_0.043",
			"primitives":[
				{
					"attributes":{
						"POSITION":0,
						"NORMAL":1,
						"TEXCOORD_0":2,
						"TEXCOORD_1":3
					},
					"indices":4
				}
			]
		}
	],
	"accessors":[
		{
			"bufferView":0,
			"componentType":5126,
			"count":146,
			"max":[
				60.6101188659668,
				58.43363952636719,
				10.523218154907227
			],
			"min":[
				-67.22985076904297,
				-70.42415618896484,
				-3.3478927612304688
			],
			"type":"VEC3"
		},
		{
			"bufferView":1,
			"componentType":5126,
			"count":146,
			"type":"VEC3"
		},
		{
			"bufferView":2,
			"componentType":5126,
			"count":146,
			"type":"VEC2"
		},
		{
			"bufferView":3,
			"componentType":5126,
			"count":146,
			"type":"VEC2"
		},
		{
			"bufferView":4,
			"componentType":5123,
			"count":582,
			"type":"SCALAR"
		}
	],
	"bufferViews":[
		{
			"buffer":0,
			"byteLength":1752,
			"byteOffset":0,
			"target":34962
		},
		{
			"buffer":0,
			"byteLength":1752,
			"byteOffset":1752,
			"target":34962
		},
		{
			"buffer":0,
			"byteLength":1168,
			"byteOffset":3504,
			"target":34962
		},
		{
			"buffer":0,
			"byteLength":1168,
			"byteOffset":4672,
			"target":34962
		},
		{
			"buffer":0,
			"byteLength":1164,
			"byteOffset":5840,
			"target":34963
		}
	],
	"buffers":[
		{
			"byteLength":7004,
			"uri":"floor.bin"
		}
	]
}
