{
	"asset":{
		"generator":"Khronos glTF Blender I/O v5.0.21",
		"version":"2.0"
	},
	"scene":0,
	"scenes":[
		{
			"name":"Scene",
			"nodes":[
				0,
				1,
				2,
				3
			]
		}
	],
	"nodes":[
		{
			"mesh":0,
			"name":"BackSide_0.006",
			"rotation":[
				-0.70710688829422,
				0,
				0,
				0.7071066498756409
			],
			"scale":[
				0.3937007784843445,
				0.3937007486820221,
				0.3937007486820221
			],
			"translation":[
				0,
				23.68794059753418,
				-7.176173312473111e-06
			]
		},
		{
			"mesh":1,
			"name":"BackSide_0.012",
			"rotation":[
				-0.70710688829422,
				0,
				0,
				0.7071066498756409
			],
			"scale":[
				0.3937007784843445,
				0.3937007486820221,
				0.3937007486820221
			],
			"translation":[
				0,
				23.68794059753418,
				-7.176173312473111e-06
			]
		},
		{
			"mesh":2,
			"name":"BackSide_0.011",
			"rotation":[
				-0.70710688829422,
				0,
				0,
				0.7071066498756409
			],
			"scale":[
				0.3937007784843445,
				0.3937007486820221,
				0.3937007486820221
			],
			"translation":[
				-12.162178039550781,
				25.22135353088379,
				-3.746356725692749
			]
		},
		{
			"mesh":3,
			"name":"BackSide_0.005",
			"rotation":[
				-0.70710688829422,
				0,
				0,
				0.7071066498756409
			],
			"scale":[
				0.3937007784843445,
				0.3937007486820221,
				0.3937007486820221
			],
			"translation":[
				0.12353515625,
				23.68794059753418,
				-0.03174544870853424
			]
		}
	],
	"meshes":[
		{
			"name":"BackSide_0.025",
			"primitives":[
				{
					"attributes":{
						"POSITION":0,
						"NORMAL":1,
						"TEXCOORD_0":2,
						"TEXCOORD_1":3
					},
					"indices":4
				}
			]
		},
		{
			"name":"BackSide_0.038",
			"primitives":[
				{
					"attributes":{
						"POSITION":5,
						"NORMAL":6,
						"TEXCOORD_0":7,
						"TEXCOORD_1":8
					},
					"indices":9
				}
			]
		},
		{
			"name":"BackSide_0.042",
			"primitives":[
				{
					"attributes":{
						"POSITION":10,
						"NORMAL":11,
						"TEXCOORD_0":12,
						"TEXCOORD_1":13
					},
					"indices":14
				}
			]
		},
		{
			"name":"BackSide_0.043",
			"primitives":[
				{
					"attributes":{
						"POSITION":15,
						"NORMAL":16,
						"TEXCOORD_0":17,
						"TEXCOORD_1":18
					},
					"indices":19
				}
			]
		}
	],
	"accessors":[
		{
			"bufferView":0,
			"componentType":5126,
			"count":860,
			"max":[
				38.41168212890625,
				28.17734718322754,
				7.515285968780518
			],
			"min":[
				-36.54696273803711,
				-3.6527535915374756,
				-3.5734522342681885
			],
			"type":"VEC3"
		},
		{
			"bufferView":1,
			"componentType":5126,
			"count":860,
			"type":"VEC3"
		},
		{
			"bufferView":2,
			"componentType":5126,
			"count":860,
			"type":"VEC2"
		},
		{
			"bufferView":3,
			"componentType":5126,
			"count":860,
			"type":"VEC2"
		},
		{
			"bufferView":4,
			"componentType":5123,
			"count":2424,
			"type":"SCALAR"
		},
		{
			"bufferView":5,
			"componentType":5126,
			"count":666,
			"max":[
				36.606781005859375,
				36.453086853027344,
				9.943340301513672
			],
			"min":[
				-47.06039810180664,
				-20.824630737304688,
				-5.493991851806641
			],
			"type":"VEC3"
		},
		{
			"bufferView":6,
			"componentType":5126,
			"count":666,
			"type":"VEC3"
		},
		{
			"bufferView":7,
			"componentType":5126,
			"count":666,
			"type":"VEC2"
		},
		{
			"bufferView":8,
			"componentType":5126,
			"count":666,
			"type":"VEC2"
		},
		{
			"bufferView":9,
			"componentType":5123,
			"count":1494,
			"type":"SCALAR"
		},
		{
			"bufferView":10,
			"componentType":5126,
			"count":903,
			"max":[
				61.91373062133789,
				4.9858269691467285,
				3.3736062049865723
			],
			"min":[
				-7.755205154418945,
				-34.390811920166016,
				-8.286279678344727
			],
			"type":"VEC3"
		},
		{
			"bufferView":11,
			"componentType":5126,
			"count":903,
			"type":"VEC3"
		},
		{
			"bufferView":12,
			"componentType":5126,
			"count":903,
			"type":"VEC2"
		},
		{
			"bufferView":13,
			"componentType":5126,
			"count":903,
			"type":"VEC2"
		},
		{
			"bufferView":14,
			"componentType":5123,
			"count":2400,
			"type":"SCALAR"
		},
		{
			"bufferView":15,
			"componentType":5126,
			"count":146,
			"max":[
				60.6101188659668,
				58.43363952636719,
				10.523218154907227
			],
			"min":[
				-67.22985076904297,
				-70.42415618896484,
				-3.3478927612304688
			],
			"type":"VEC3"
		},
		{
			"bufferView":16,
			"componentType":5126,
			"count":146,
			"type":"VEC3"
		},
		{
			"bufferView":17,
			"componentType":5126,
			"count":146,
			"type":"VEC2"
		},
		{
			"bufferView":18,
			"componentType":5126,
			"count":146,
			"type":"VEC2"
		},
		{
			"bufferView":19,
			"componentType":5123,
			"count":582,
			"type":"SCALAR"
		}
	],
	"bufferViews":[
		{
			"buffer":0,
			"byteLength":10320,
			"byteOffset":0,
			"target":34962
		},
		{
			"buffer":0,
			"byteLength":10320,
			"byteOffset":10320,
			"target":34962
		},
		{
			"buffer":0,
			"byteLength":6880,
			"byteOffset":20640,
			"target":34962
		},
		{
			"buffer":0,
			"byteLength":6880,
			"byteOffset":27520,
			"target":34962
		},
		{
			"buffer":0,
			"byteLength":4848,
			"byteOffset":34400,
			"target":34963
		},
		{
			"buffer":0,
			"byteLength":7992,
			"byteOffset":39248,
			"target":34962
		},
		{
			"buffer":0,
			"byteLength":7992,
			"byteOffset":47240,
			"target":34962
		},
		{
			"buffer":0,
			"byteLength":5328,
			"byteOffset":55232,
			"target":34962
		},
		{
			"buffer":0,
			"byteLength":5328,
			"byteOffset":60560,
			"target":34962
		},
		{
			"buffer":0,
			"byteLength":2988,
			"byteOffset":65888,
			"target":34963
		},
		{
			"buffer":0,
			"byteLength":10836,
			"byteOffset":68876,
			"target":34962
		},
		{
			"buffer":0,
			"byteLength":10836,
			"byteOffset":79712,
			"target":34962
		},
		{
			"buffer":0,
			"byteLength":7224,
			"byteOffset":90548,
			"target":34962
		},
		{
			"buffer":0,
			"byteLength":7224,
			"byteOffset":97772,
			"target":34962
		},
		{
			"buffer":0,
			"byteLength":4800,
			"byteOffset":104996,
			"target":34963
		},
		{
			"buffer":0,
			"byteLength":1752,
			"byteOffset":109796,
			"target":34962
		},
		{
			"buffer":0,
			"byteLength":1752,
			"byteOffset":111548,
			"target":34962
		},
		{
			"buffer":0,
			"byteLength":1168,
			"byteOffset":113300,
			"target":34962
		},
		{
			"buffer":0,
			"byteLength":1168,
			"byteOffset":114468,
			"target":34962
		},
		{
			"buffer":0,
			"byteLength":1164,
			"byteOffset":115636,
			"target":34963
		}
	],
	"buffers":[
		{
			"byteLength":116800,
			"uri":"floor.bin"
		}
	]
}
